VIDEO INFO:

Complete name                    : C:\Documents and Settings\R.Sweres\Bureaublad\Coma - DVDrip [AC-3 5.1] (Thriller 1978 XviD).avi
Format                           : AVI
Format/Info                      : Audio Video Interleave
Format profile                   : OpenDML
Format settings                  : rec
File size                        : 1.76 GiB
Duration                         : 1h 53mn
Overall bit rate                 : 2 225 Kbps
Movie name                       : Coma 1978 XviD
Writing application              : AVI-Mux GUI 1.17.7, Aug  8 2006  20:59:17

Video
ID                               : 0
Format                           : MPEG-4 Visual
Format profile                   : Advanced Simple@L5
Format settings, BVOP            : 2
Format settings, QPel            : No
Format settings, GMC             : No warppoints
Format settings, Matrix          : Default (H.263)
Muxing mode                      : Packed bitstream
Codec ID                         : DX50
Codec ID/Hint                    : DivX 5
Duration                         : 1h 53mn
Bit rate                         : 1 772 Kbps
Width                            : 720 pixels
Height                           : 404 pixels
Display aspect ratio             : 16:9
Frame rate                       : 23.976 fps
Color space                      : YUV
Chroma subsampling               : 4:2:0
Bit depth                        : 8 bits
Scan type                        : Progressive
Compression mode                 : Lossy
Bits/(Pixel*Frame)               : 0.254
Stream size                      : 1.40 GiB (80%)
Writing library                  : XviD 1.2.1 (UTC 2008-12-04)

Audio
ID                               : 1
Format                           : AC-3
Format/Info                      : Audio Coding 3
Mode extension                   : CM (complete main)
Codec ID                         : 2000
Duration                         : 1h 52mn
Bit rate mode                    : Constant
Bit rate                         : 448 Kbps
Channel(s)                       : 6 channels
Channel positions                : Front: L C R, Side: L R, LFE
Sampling rate                    : 48.0 KHz
Bit depth                        : 16 bits
Compression mode                 : Lossy
Stream size                      : 362 MiB (20%)
Alignment                        : Aligned on interleaves
Interleave, duration             : 64 ms (1.54 video frames)
Interleave, preload duration     : 192 ms
Title                            : coma.Title2

Text
ID                               : 2
Stream size                      : 106 KiB (0%)
--------------------------------------

Verenigde Staten
Thriller
113 minuten

geregisseerd door Michael Crichton
met Geneviève Bujold, Michael Douglas en Richard Widmark

Een jonge vrouw is dokter in een ziekenhuis waar mysterieuze dingen gebeuren. Relatief gezonde patiënten hebben complicaties tijdens simpele operaties en komen in coma terecht. De patiënten worden vervolgens overgeplaatst naar een instituut dat ze in de gaten houdt. Ze gaat op onderzoek uit in het ziekenhuis en het instituut. Ze vraagt haar man Mark om hulp, maar zij lijkt er alleen voor te staan.

-Ondertiteling (nederlands) in film met mogelijkheid deze aan/uit te zetten.

Veel plezier ermee.